<?xml version="1.0" standalone="no"?>
<!DOCTYPE svg PUBLIC "-//W3C//DTD SVG 20010904//EN"
 "http://www.w3.org/TR/2001/REC-SVG-20010904/DTD/svg10.dtd">
<svg version="1.0" xmlns="http://www.w3.org/2000/svg"
 width="454.000000pt" height="454.000000pt" viewBox="0 0 454.000000 454.000000"
 preserveAspectRatio="xMidYMid meet">
<metadata>
Created by potrace 1.11, written by Peter Selinger 2001-2013
</metadata>
<g transform="translate(0.000000,454.000000) scale(0.100000,-0.100000)"
fill="#000000" stroke="none">
<path d="M2575 4146 c-116 -37 -207 -116 -258 -224 -30 -63 -32 -74 -32 -177
0 -105 2 -114 34 -180 40 -81 116 -161 180 -190 l43 -19 -6 -51 c-3 -27 -9
-66 -12 -86 l-6 -36 74 -11 c41 -6 81 -14 89 -17 12 -4 18 13 28 83 l12 90 47
6 c59 8 157 54 206 96 90 79 136 186 136 315 0 241 -177 416 -418 414 -42 0
-95 -6 -117 -13z m220 -185 c154 -72 185 -280 58 -392 -49 -43 -92 -59 -156
-59 -202 0 -311 236 -181 389 67 78 187 105 279 62z"/>
<path d="M2305 3034 c-290 -65 -511 -280 -585 -568 -24 -95 -27 -258 -6 -357
55 -256 253 -476 511 -566 75 -26 91 -28 240 -28 173 0 229 12 349 72 343 172
508 571 387 933 -83 246 -262 420 -516 500 -94 29 -281 36 -380 14z"/>
<path d="M633 2326 c-197 -48 -356 -212 -398 -411 -18 -88 -19 -142 0 -230 50
-238 248 -406 495 -422 160 -10 294 41 411 157 106 105 159 231 159 381 l0 76
151 39 c83 21 156 42 162 46 8 5 7 22 -5 60 -9 29 -19 65 -22 81 -4 15 -13 27
-21 27 -7 0 -81 -18 -162 -40 -81 -22 -151 -40 -154 -40 -3 0 -20 22 -37 49
-43 66 -132 146 -203 182 -111 56 -258 73 -376 45z m278 -199 c67 -32 151
-117 182 -184 31 -68 31 -217 0 -285 -26 -55 -92 -131 -144 -164 -177 -111
-416 -39 -512 155 -28 58 -32 75 -32 151 0 71 4 94 26 141 47 99 128 171 232
205 66 22 180 13 248 -19z"/>
<path d="M3065 1610 c-9 -10 -39 -34 -66 -52 -27 -18 -49 -35 -49 -38 0 -3 65
-93 144 -200 l144 -195 -25 -29 c-116 -138 -136 -373 -45 -540 159 -293 568
-343 794 -97 137 150 168 372 77 557 -31 61 -115 153 -179 194 -111 71 -285
92 -411 50 -41 -14 -65 -18 -73 -11 -6 5 -72 93 -146 195 -74 102 -138 185
-141 186 -3 0 -14 -9 -24 -20z m662 -535 c153 -68 226 -257 157 -405 -31 -68
-84 -124 -149 -158 -43 -23 -62 -27 -135 -27 -70 0 -93 4 -130 24 -61 32 -117
86 -148 146 -23 43 -27 63 -27 135 0 70 4 94 24 134 46 92 120 150 221 171 69
15 121 9 187 -20z"/>
</g>
</svg>
